:SAMPLES-PER-SECOND 30
:FULLY-SPECIFIED
:DEGREES
665
root  70.9201 39.1586 27.2981 -156.119 -5.6209 177.718
RightUpLeg  -39.534 -7.4277 -3.2384
RightLeg  5.20941 -11.9023 5.3355
RightFoot  10.0306 0.649184 -3.07103
RightToes  0.00048216 0.542163 -0.142577
Spine  58.0187 -4.34069 9.38828
Spine1  8.09997 1.52751 -1.89331
HEad  -32.1828 -1.94498 -6.20486
LeftShoulder1  12.0256 -25.5661 -35.1206
LeftArm  -50.8085 -65.3091 4.54812
LeftForeArm  14.3463 0.281699 -1.91985
LeftHand  -0.25398 0.0180481 5.50724
RightShoulder  4.77696 13.0266 22.6454
RightArm  -42.7163 66.8251 -5.35672
RightForeArm  0.790981 -1.24169 6.52255
RightHand  -11.1775 24.3218 -42.0896
LeftUpLeg  -37.2362 3.95134 3.62386
LeftLeg  0.119165 11.077 -5.45462
LeftFoot  13.6512 -0.604465 2.34863
LeftToes  1.06244e-005 4.65855e-005 -8.18506e-006
666
root  70.8535 39.1182 27.4971 -156.759 -5.23747 177.691
RightUpLeg  -39.4295 -7.55704 -3.26706
RightLeg  5.54474 -11.2216 5.35086
RightFoot  10.4297 0.741995 -3.48166
RightToes  0.00048216 0.542163 -0.142577
Spine  57.6964 -4.25777 9.32117
Spine1  8.06877 1.58144 -2.08719
HEad  -32.1245 -1.62548 -6.44074
LeftShoulder1  12.0711 -25.9071 -34.7927
LeftArm  -50.3368 -65.2641 4.35901
LeftForeArm  16.3308 0.954816 -1.89834
LeftHand  -0.25398 0.0180481 5.50724
RightShoulder  4.74322 13.0349 22.4136
RightArm  -42.8587 67.8213 -6.58016
RightForeArm  4.39474 -2.72414 6.52939
RightHand  -10.6378 22.863 -42.1146
LeftUpLeg  -36.9616 4.24878 3.56482
LeftLeg  0.426329 11.2351 -5.73189
LeftFoot  13.8645 -0.58341 2.22835
LeftToes  1.06244e-005 4.65855e-005 -8.18506e-006
667
root  70.7922 39.0796 27.7113 -157.597 -4.92009 177.567
RightUpLeg  -39.2135 -7.84698 -3.32861
RightLeg  6.09528 -10.5426 5.31089
RightFoot  10.6465 0.819345 -3.83639
RightToes  0.00048216 0.542163 -0.142577
Spine  57.3007 -4.24998 9.08739
Spine1  8.24281 1.45594 -2.29871
HEad  -31.9841 -0.997182 -6.85721
LeftShoulder1  12.1656 -26.4515 -34.3525
LeftArm  -49.6116 -64.6654 4.22647
LeftForeArm  18.8002 0.857242 -1.95612
LeftHand  -0.25398 0.0180481 5.50724
RightShoulder  4.68061 13.0314 22.0181
RightArm  -42.7953 68.832 -6.75542
RightForeArm  7.43961 -3.65379 6.52266
RightHand  -8.1881 18.4371 -38.7197
LeftUpLeg  -36.3885 4.22633 3.45331
LeftLeg  0.482191 11.5278 -5.78295
LeftFoot  14.1506 -0.528333 1.95059
LeftToes  1.06244e-005 4.65855e-005 -8.18506e-006
668
root  70.7636 39.0523 27.9299 -158.584 -4.66475 177.553
RightUpLeg  -38.7003 -7.93096 -3.31599
RightLeg  6.3811 -10.1179 5.17893
RightFoot  10.8495 0.826555 -3.83012
RightToes  0.00048216 0.542163 -0.142577
Spine  56.9241 -4.12264 8.75778
Spine1  8.26666 1.35735 -2.23884
HEad  -31.696 -0.422639 -7.46518
LeftShoulder1  12.3371 -26.8515 -34.3703
LeftArm  -48.1072 -63.9386 2.93528
LeftForeArm  21.8973 -0.193004 -2.08072
LeftHand  -0.25398 0.0180481 5.50724
RightShoulder  4.6398 13.0011 21.8108
RightArm  -42.274 69.7007 -6.06559
RightForeArm  10.2977 -3.68604 6.54005
RightHand  -5.11167 12.1084 -33.3784
LeftUpLeg  -35.6461 4.35988 3.43968
LeftLeg  0.470739 11.597 -5.88226
LeftFoot  14.4594 -0.546594 1.99757
LeftToes  1.06244e-005 4.65855e-005 -8.18506e-006
669
root  70.7799 39.0344 28.1396 -159.599 -4.47743 177.782
RightUpLeg  -37.86 -7.64434 -3.19309
RightLeg  6.10658 -10.0021 5.12358
RightFoot  11.2204 0.79715 -3.60507
RightToes  0.00048216 0.542163 -0.142577
Spine  56.402 -3.8805 8.51209
Spine1  8.1466 1.36535 -1.95539
HEad  -31.5184 0.0917523 -8.14092
LeftShoulder1  12.5031 -26.9455 -34.7817
LeftArm  -45.9478 -63.2156 0.213475
LeftForeArm  24.2736 -1.3344 -2.1186
LeftHand  -0.25398 0.0180481 5.50724
RightShoulder  4.63694 12.9762 21.8373
RightArm  -41.0966 70.3417 -3.93379
RightForeArm  12.4632 -2.8877 6.44523
RightHand  -3.01163 6.71469 -28.8102
LeftUpLeg  -34.9788 5.02612 3.6501
LeftLeg  0.684408 11.2583 -6.24297
LeftFoot  14.6816 -0.589228 2.15875
LeftToes  1.06244e-005 4.65855e-005 -8.18506e-006
670
root  70.8291 39.0148 28.338 -160.642 -4.47258 178.044
RightUpLeg  -36.8543 -7.43201 -3.08797
RightLeg  5.67499 -10.0581 5.29224
RightFoot  11.5944 0.796254 -3.52711
RightToes  0.00048216 0.542163 -0.142577
Spine  55.6216 -3.69432 8.48719
Spine1  8.11815 1.35828 -1.67136
HEad  -31.4909 0.553348 -8.80136
LeftShoulder1  12.6592 -26.9151 -35.326
LeftArm  -43.2239 -62.2069 -3.33382
LeftForeArm  25.5981 -1.59833 -2.06275
LeftHand  -0.25398 0.0180481 5.50724
RightShoulder  4.63245 12.865 22.0133
RightArm  -38.7764 70.6657 0.346773
RightForeArm  13.1482 -2.05113 6.1998
RightHand  -2.24651 4.3014 -26.8476
LeftUpLeg  -34.3646 5.70986 3.91855
LeftLeg  1.04541 10.7423 -6.56778
LeftFoot  14.8205 -0.588149 2.13827
LeftToes  1.06244e-005 4.65855e-005 -8.18506e-006
671
root  70.9033 38.9924 28.5287 -161.845 -4.72466 178.071
RightUpLeg  -35.6998 -7.72735 -3.15538
RightLeg  5.4621 -10.1273 5.65173
RightFoot  11.769 0.814077 -3.58105
RightToes  0.00048216 0.542163 -0.142577
Spine  54.7534 -3.62964 8.61232
Spine1  8.17458 1.24101 -1.51453
HEad  -31.3454 0.888388 -9.34014
LeftShoulder1  12.8627 -26.809 -36.1274
LeftArm  -39.606 -60.6542 -7.32681
LeftForeArm  27.3444 -1.04448 -2.11746
LeftHand  -0.25398 0.0180481 5.50724
RightShoulder  4.63857 12.6407 22.4701
RightArm  -34.707 70.4226 6.43016
RightForeArm  13.0367 -1.99294 6.01422
RightHand  -2.29782 4.41561 -27.059
LeftUpLeg  -33.5866 5.85356 4.002
LeftLeg  1.36868 10.225 -6.56994
LeftFoot  15.0216 -0.609816 2.20819
LeftToes  1.06244e-005 4.65855e-005 -8.18506e-006
672
root  71.0073 38.9855 28.7101 -163.239 -5.18405 177.827
RightUpLeg  -34.2058 -8.41003 -3.43694
RightLeg  5.15463 -10.0896 6.08594
RightFoot  11.8898 0.787653 -3.42983
RightToes  0.00048216 0.542163 -0.142577
Spine  53.714 -3.97188 8.74762
Spine1  8.70852 0.850862 -2.0985
HEad  -31.3529 1.51844 -9.23123
LeftShoulder1  12.6586 -26.284 -36.2062
LeftArm  -35.4225 -58.2796 -11.7865
LeftForeArm  29.7888 -0.637949 -2.24579
LeftHand  -0.25398 0.0180481 5.50724
RightShoulder  4.80988 12.8235 23.2408
RightArm  -29.565 69.3367 12.9703
RightForeArm  13.0293 -2.6502 5.98003
RightHand  -2.56318 5.21895 -27.8848
LeftUpLeg  -32.6317 5.75906 3.86542
LeftLeg  1.79462 9.51975 -6.38962
LeftFoot  15.2836 -0.548592 1.92804
LeftToes  1.06244e-005 4.65855e-005 -8.18506e-006
673
root  71.1284 39.0051 28.8736 -164.671 -5.70959 177.458
RightUpLeg  -32.4034 -9.06371 -3.85394
RightLeg  4.43934 -9.91695 6.46572
RightFoot  12.1725 0.715639 -3.03235
RightToes  0.00048216 0.542163 -0.142577
Spine  52.8558 -3.84576 8.74086
Spine1  8.65634 0.718775 -2.01482
HEad  -30.8286 1.71248 -8.83637
LeftShoulder1  12.9066 -25.7562 -37.7841
LeftArm  -30.8148 -54.8262 -16.3423
LeftForeArm  32.2725 -0.913597 -2.62838
LeftHand  -0.25398 0.0180481 5.50724
RightShoulder  5.01213 12.9637 24.268
RightArm  -23.4021 66.3304 18.8727
RightForeArm  12.0582 -2.82328 6.41414
RightHand  -2.72551 5.61015 -28.5685
LeftUpLeg  -31.7829 6.15653 3.54436
LeftLeg  2.76786 8.14982 -6.09653
LeftFoot  14.9927 0.0408371 -0.57397
LeftToes  1.06244e-005 4.65855e-005 -8.18506e-006
674
root  71.2197 39.0298 29.0179 -166.124 -6.18057 177.039
RightUpLeg  -30.631 -9.65233 -4.34601
RightLeg  3.89151 -9.62855 6.67505
RightFoot  12.4244 0.656091 -2.70761
RightToes  0.00048216 0.542163 -0.142577
Spine  51.7969 -3.68711 8.76664
Spine1  8.73061 0.628409 -2.03943
HEad  -30.2351 1.81714 -8.02686
LeftShoulder1  13.1787 -25.189 -39.5428
LeftArm  -26.8512 -50.3299 -19.8134
LeftForeArm  33.1005 -1.65242 -3.13347
LeftHand  -0.25398 0.0180481 5.50724
RightShoulder  5.3023 13.2563 25.5225
RightArm  -18.1813 61.8172 23.3946
RightForeArm  9.75212 -2.28933 7.00014
RightHand  -2.95274 6.20464 -29.3198
LeftUpLeg  -31.1855 7.59037 2.64421
LeftLeg  4.78835 5.08459 -5.35822
LeftFoot  13.0723 1.19885 -5.97163
LeftToes  1.06244e-005 4.65855e-005 -8.18506e-006
675
root  71.2435 39.0398 29.1546 -167.745 -6.52066 176.573
RightUpLeg  -29.0096 -10.3419 -4.94431
RightLeg  4.01386 -9.23691 6.7417
RightFoot  12.4416 0.630214 -2.5825
RightToes  0.00048216 0.542163 -0.142577
Spine  50.5843 -3.60268 8.81116
Spine1  9.21539 0.547558 -2.31154
HEad  -29.5104 1.74437 -7.23693
LeftShoulder1  13.367 -24.605 -41.0932
LeftArm  -23.6096 -45.2181 -22.0217
LeftForeArm  33.0224 -2.3247 -3.67522
LeftHand  -0.25398 0.0180481 5.50724
RightShoulder  5.642 13.5506 27.0244
RightArm  -14.238 56.5455 26.5904
RightForeArm  7.56429 -1.70821 7.55501
RightHand  -3.46549 7.78438 -30.2596
LeftUpLeg  -30.7705 10.5597 0.496548
LeftLeg  8.34693 -0.851842 -4.05775
LeftFoot  8.95987 1.96545 -11.2669
LeftToes  1.06244e-005 4.65855e-005 -8.18506e-006
676
root  71.1998 39.0532 29.2997 -169.526 -6.72577 176.153
RightUpLeg  -27.2727 -10.9951 -5.61404
RightLeg  4.19344 -8.74679 6.7791
RightFoot  12.5158 0.604186 -2.44904
RightToes  0.00048216 0.542163 -0.142577
Spine  49.311 -3.50955 8.67884
Spine1  10.0294 0.526529 -2.54085
HEad  -28.5862 1.544 -6.84664
LeftShoulder1  13.4122 -23.9621 -42.307
LeftArm  -21.1693 -39.6426 -23.6563
LeftForeArm  33.287 -2.82314 -3.97994
LeftHand  -0.25398 0.0180481 5.50724
RightShoulder  5.98919 13.8437 28.5056
RightArm  -11.2869 50.8133 28.7976
RightForeArm  6.62445 -1.26254 7.96641
RightHand  -3.8578 9.07746 -30.6754
LeftUpLeg  -30.2007 13.7124 -1.93003
LeftLeg  13.4057 -7.18327 -2.87199
LeftFoot  3.3524 1.60445 -12.4126
LeftToes  1.06244e-005 4.65855e-005 -8.18506e-006
677
root  71.088 39.0783 29.4537 -171.253 -6.8317 175.957
RightUpLeg  -25.4375 -11.3195 -6.17512
RightLeg  3.96296 -8.27257 6.73243
RightFoot  12.836 0.554804 -2.17471
RightToes  0.00048216 0.542163 -0.142577
Spine  48.0156 -3.15116 8.4468
Spine1  10.4449 0.682909 -2.15811
HEad  -27.2929 1.1478 -6.90479
LeftShoulder1  13.7256 -23.3133 -44.486
LeftArm  -19.4248 -33.7278 -24.3273
LeftForeArm  33.7087 -3.06471 -4.14358
LeftHand  -0.25398 0.0180481 5.50724
RightShoulder  6.30443 14.0138 30.008
RightArm  -9.09627 44.0317 30.0087
RightForeArm  5.65611 -0.203946 8.27023
RightHand  -3.48224 8.09453 -29.7087
LeftUpLeg  -28.5551 13.0917 -1.79052
LeftLeg  18.6987 -7.39011 -2.28351
LeftFoot  -2.35416 0.767414 -9.47794
LeftToes  1.06244e-005 4.65855e-005 -8.18506e-006
